# xmcd CD database file
#
# Track frame offsets:
#	150
#	9405
#	19775
#	34635
#	47210
#	58028
#	69390
#	82628
#	94140
#	104388
#	116418
#	133100
#	144480
#	155100
#	164680
#	177368
#
# Disc length: 2532 seconds
#
# Revision: 3
# Processed by: cddbd v1.5.2PL0 Copyright (c) Steve Scherf et al.
# Submitted via: jetAudio 7
#
DISCID=d209e210
DTITLE=Chet Atkins - Guitar For All Seasons
DYEAR=1900
DGENRE=Country
TTITLE0=Yakety Axe
TTITLE1=White Silver Sands
TTITLE2=Yellow Bird
TTITLE3=Stranger On The Shore
TTITLE4=Meet Mister Callaghan
TTITLE5=Wheels
TTITLE6=Mrs. Robinson
TTITLE7=Anna
TTITLE8=Snowbird
TTITLE9=Green, Green Grass Of Home
TTITLE10=The Battle Of New Orleans - Sugarfoot Rag
TTITLE11=Orange Blossom Special
TTITLE12=Delicado
TTITLE13=Siboney
TTITLE14=Malagueña
TTITLE15=Manhã De Carnaval
EXTD=
EXTT0=
EXTT1=
EXTT2=
EXTT3=
EXTT4=
EXTT5=
EXTT6=
EXTT7=
EXTT8=
EXTT9=
EXTT10=
EXTT11=
EXTT12=
EXTT13=
EXTT14=
EXTT15=
PLAYORDER=
